<svg width="100%" height="100%" viewBox="0 0 868 599" fill="none" xmlns="http://www.w3.org/2000/svg">
<path d="M362.091 101.334C367.786 65.147 343.055 31.1967 306.853 25.5043C270.651 19.8119 236.687 44.533 230.992 80.7204C225.297 116.908 250.028 150.858 286.23 156.55C322.432 162.243 356.396 137.522 362.091 101.334Z" fill="#BEDCE0"/>
<path d="M276.925 21.3424L277.802 30.6637H283.413L285.598 19.3771L276.925 21.3424Z" fill="#943232"/>
<path d="M313.412 25.4887C313.412 25.4887 309.285 23.2271 309.946 11.292H297.122H284.297C284.958 23.2271 280.831 25.4887 280.831 25.4887L280.861 35.5392C280.332 47.7262 287.075 54.2592 297.122 54.2592C307.169 54.2592 313.913 47.7262 313.382 35.5392L313.412 25.4887Z" fill="#D68D8D"/>
<path d="M292.81 16.0258C292.81 16.0258 280.862 26.0763 272.484 22.2889C264.105 18.5014 264.98 6.4132 271.754 6.19428C278.53 5.97537 283.556 8.16125 294.849 5.53917C306.141 2.91709 324.281 4.94826 316.756 29.9345L312.918 30.6621L310.077 23.0888C310.077 23.0888 296.818 22.6543 292.81 16.0258Z" fill="#943232"/>
<path d="M307.746 44.8654H284.87V62.9253H307.746V44.8654Z" fill="#D68D8D"/>
<path d="M286.713 51.0264C290.843 53.8953 298.633 56.5816 306.796 51.5613" stroke="#422424" stroke-width="0.5494" stroke-miterlimit="10"/>
<path d="M290.643 27.5758C289.34 27.5758 288.283 29.2876 288.283 31.3995C288.283 32.099 288.408 32.7475 288.611 33.3121L290.141 32.6554L289.059 34.2174C289.479 34.8363 290.03 35.2231 290.643 35.2231C291.945 35.2231 293.003 33.5113 293.003 31.3995C293.003 29.2876 291.947 27.5758 290.643 27.5758Z" fill="#202A3B"/>
<path d="M303.599 27.5758C304.902 27.5758 305.959 29.2876 305.959 31.3995C305.959 32.099 305.834 32.7475 305.631 33.3121L304.101 32.6554L305.183 34.2174C304.763 34.8363 304.212 35.2231 303.601 35.2231C302.297 35.2231 301.241 33.5113 301.241 31.3995C301.241 29.2876 302.297 27.5758 303.599 27.5758Z" fill="#202A3B"/>
<path d="M295.688 30.16V37.6971L300.35 36.6403" stroke="#422424" stroke-width="0.5494" stroke-miterlimit="10"/>
<path d="M291.184 39.2213H303.059C303.059 39.2213 302.257 48.5788 297.121 48.5788C291.986 48.5788 291.184 39.2213 291.184 39.2213Z" fill="#422424"/>
<path d="M297.121 43.4498C295.302 43.4498 293.66 43.7856 292.394 44.3222C293.26 46.513 294.707 48.5788 297.121 48.5788C299.534 48.5788 300.983 46.5114 301.849 44.3222C300.582 43.7856 298.941 43.4498 297.121 43.4498Z" fill="#943232"/>
<path d="M286.512 26.4762C286.512 26.4762 287.966 22.1621 294.379 26.4762" stroke="#943232" stroke-width="1.0403" stroke-miterlimit="10" stroke-linecap="round" stroke-linejoin="round"/>
<path d="M307.731 26.4762C307.731 26.4762 306.277 22.1621 299.863 26.4762" stroke="#943232" stroke-width="1.0403" stroke-miterlimit="10" stroke-linecap="round" stroke-linejoin="round"/>
<path d="M282.469 31.3386C284.053 34.861 283.104 38.7176 280.353 39.9537C277.601 41.1899 274.086 39.3381 272.501 35.8157C270.917 32.2932 271.866 28.4367 274.617 27.2005C277.371 25.9644 280.885 27.8161 282.469 31.3386Z" fill="#D68D8D"/>
<path d="M274.807 30.5189C277.046 29.6448 280.27 32.7031 281.637 35.6527" stroke="#422424" stroke-width="0.5494" stroke-miterlimit="10"/>
<path d="M275.627 34.8873L278.222 31.3994" stroke="#422424" stroke-width="0.5494" stroke-miterlimit="10"/>
<path d="M311.773 31.3386C310.189 34.861 311.137 38.7176 313.889 39.9537C316.642 41.1899 320.156 39.3381 321.74 35.8157C323.324 32.2932 322.376 28.4367 319.624 27.2005C316.871 25.9644 313.357 27.8161 311.773 31.3386Z" fill="#D68D8D"/>
<path d="M319.435 30.5189C317.194 29.6448 313.971 32.7031 312.604 35.6527" stroke="#422424" stroke-width="0.5494" stroke-miterlimit="10"/>
<path d="M318.615 34.8873L316.02 31.3994" stroke="#422424" stroke-width="0.5494" stroke-miterlimit="10"/>
<mask id="mask0_608_2696" style="mask-type:luminance" maskUnits="userSpaceOnUse" x="230" y="24" width="133" height="134">
<path d="M362.091 101.334C367.786 65.1469 343.055 31.1966 306.853 25.5042C270.651 19.8118 236.687 44.5329 230.992 80.7203C225.297 116.908 250.028 150.858 286.23 156.55C322.432 162.243 356.396 137.522 362.091 101.334Z" fill="white"/>
</mask>
<g mask="url(#mask0_608_2696)">
<path d="M310.29 62.9171L310.141 61.3468C309.95 59.3518 308.273 57.8276 306.268 57.8276H286.771C284.765 57.8276 283.089 59.3518 282.898 61.3468L282.748 62.9171C282.556 64.9351 281.126 66.6206 279.167 67.1424L276.405 67.8765L287.341 159.926H296.521H305.701L316.637 67.8765L313.875 67.1424C311.912 66.6206 310.483 64.9351 310.29 62.9171Z" fill="#202A3B"/>
<path d="M276.45 67.8765L287.385 159.926H216.208L230.934 106.327C230.934 106.327 235.514 75.0876 276.45 67.8765Z" fill="#4A6CAB"/>
<path d="M273.413 72.1364L271.058 75.9337C267.101 82.3169 267.05 90.3773 270.93 96.8099L273.413 100.928L270.49 108.934C268.889 113.321 268.873 118.131 270.444 122.529L281.088 152.311" stroke="#202A3B" stroke-width="0.5494" stroke-miterlimit="10"/>
<path d="M248.611 98.7274L255.012 157.361" stroke="#202A3B" stroke-width="0.5494" stroke-miterlimit="10"/>
<path d="M316.587 67.8765L305.651 159.926H376.829L362.102 106.327C362.102 106.327 357.523 75.0876 316.587 67.8765Z" fill="#4A6CAB"/>
<path d="M319.623 72.1364L321.978 75.9337C325.935 82.3169 325.986 90.3773 322.107 96.8099L319.623 100.928L322.546 108.934C324.147 113.321 324.163 118.131 322.592 122.529L311.948 152.311" stroke="#202A3B" stroke-width="0.5494" stroke-miterlimit="10"/>
<path d="M344.425 98.7274L338.024 157.361" stroke="#202A3B" stroke-width="0.5494" stroke-miterlimit="10"/>
</g>
<path d="M303.059 328.654C154.544 328.654 34.1484 449.001 34.1484 597.455H571.968C571.97 448.999 451.573 328.654 303.059 328.654Z" fill="#BEDCE0"/>
<path d="M834.87 597.456H349.716V338.877C349.716 204.96 458.322 96.3983 592.293 96.3983C726.264 96.3983 834.87 204.96 834.87 338.877V597.456Z" fill="#EBBC3B"/>
<path d="M781.802 217.447C809.449 217.447 831.861 195.044 831.861 167.408C831.861 139.773 809.449 117.37 781.802 117.37C754.156 117.37 731.744 139.773 731.744 167.408C731.744 195.044 754.156 217.447 781.802 217.447Z" fill="#BEDCE0"/>
<path d="M825.933 143.793C817.494 128.069 800.902 117.37 781.802 117.37V167.408L825.933 143.793Z" fill="#D4780E"/>
<path d="M818.862 200.962C826.914 192.082 831.861 180.338 831.861 167.408C831.861 158.866 829.709 150.828 825.933 143.793L781.802 167.408L818.862 200.962Z" fill="#EBBC3B"/>
<path d="M818.862 200.962L781.804 167.408L785.631 217.252C798.795 216.255 810.507 210.175 818.862 200.962Z" fill="#D65353"/>
<path d="M781.804 167.408L731.938 163.578C731.842 164.846 731.745 166.115 731.745 167.408C731.745 195.043 754.156 217.447 781.804 217.447C783.095 217.447 784.363 217.35 785.631 217.254L781.804 167.408Z" fill="#202A3B"/>
<path d="M375.338 185.472C360.902 187.263 359.449 188.713 357.658 203.145C355.866 188.714 354.414 187.263 339.978 185.472C354.414 183.681 355.866 182.229 357.658 167.799C359.449 182.229 360.902 183.681 375.338 185.472Z" fill="#EBBC3B"/>
<path d="M87.5383 387.661C73.1019 389.452 71.6496 390.904 69.858 405.334C68.0664 390.904 66.6141 389.452 52.1777 387.661C66.6141 385.871 68.0664 384.42 69.858 369.988C71.6479 384.419 73.1003 385.871 87.5383 387.661Z" fill="#EBBC3B"/>
<path d="M614.743 457.029C600.307 458.82 598.855 460.27 597.063 474.702C595.271 460.271 593.819 458.82 579.383 457.029C593.819 455.238 595.271 453.786 597.063 439.356C598.855 453.786 600.307 455.238 614.743 457.029Z" fill="white"/>
<path d="M802.796 357.931C788.36 359.722 786.907 361.172 785.116 375.604C783.324 361.174 781.874 359.722 767.436 357.931C781.872 356.14 783.324 354.689 785.116 340.258C786.907 354.69 788.36 356.14 802.796 357.931Z" fill="white"/>
<path d="M715.097 146.35C715.097 146.35 720.972 136.291 722.642 130.536C724.312 124.782 721.638 118.522 713.246 119.039C704.773 110.964 681.067 112.267 678.992 120.893C677.469 127.23 683.771 127.806 683.771 127.806C687.519 127.941 710.271 146.058 710.271 146.058L715.097 146.35Z" fill="#496163"/>
<path d="M677.411 567.816L681.811 597.378L615.659 597.444L614.344 593.367C614.344 593.367 619.88 582.457 648.86 576.583L651.764 567.841L677.411 567.816Z" fill="#D68D8D"/>
<path d="M614.344 593.367L615.659 597.444L681.811 597.378L679.611 582.597L648.871 587.216L654.249 582.376C655.629 581.134 655.186 578.87 653.441 578.238L648.861 576.583C619.88 582.457 614.344 593.367 614.344 593.367Z" fill="#202A3B"/>
<path d="M736.988 567.757L737.87 576.495L737.016 597.324L775.92 597.286C775.92 597.286 773.937 581.703 763.878 576.471L761.097 567.735L736.988 567.757Z" fill="#D68D8D"/>
<path d="M763.88 576.469L762.936 573.506L743.222 573.526L744.76 582.059L737.871 576.494L737.016 597.322L775.92 597.284C775.92 597.284 773.939 581.703 763.88 576.469Z" fill="#202A3B"/>
<path d="M740.224 302.31L767.154 571.223L730.873 571.258L693.088 376.419L682.352 571.306L646.507 571.342L644.862 325.706L653.237 302.395L740.224 302.31Z" fill="#4A5059"/>
<path d="M693.087 376.419L688.03 346.055L687.984 300.176" stroke="#202A3B" stroke-width="0.5621" stroke-miterlimit="10"/>
<path d="M669.45 342.796L710.547 350.84" stroke="#202A3B" stroke-width="0.5621" stroke-miterlimit="10"/>
<path d="M681.208 298.873L680.165 324.427C680.02 327.951 681.913 331.243 685.03 332.894L688.019 334.476" stroke="#202A3B" stroke-width="0.5621" stroke-miterlimit="10"/>
<path d="M674.488 354.371L709.457 354.336" stroke="#202A3B" stroke-width="0.5621" stroke-miterlimit="10"/>
<path d="M711.549 325.136L745.263 352.623L741.88 318.85L711.549 325.136Z" fill="#202A3B"/>
<path d="M657.85 325.693L645.043 352.722L644.862 325.706L657.85 325.693Z" fill="#202A3B"/>
<path d="M737.289 343.417L761.47 571.228" stroke="#202A3B" stroke-width="0.5621" stroke-miterlimit="10"/>
<path d="M651.366 336.407L651.598 571.337" stroke="#202A3B" stroke-width="0.5621" stroke-miterlimit="10"/>
<path d="M665.33 295.829L710.493 295.785L716.709 171.469L692.199 174.988L665.33 295.829Z" fill="#E6DBCA"/>
<path d="M718.145 293.186H657.823V304.547H718.145V293.186Z" fill="#202A3B"/>
<path d="M694.053 304.54L677.589 304.557L678.821 293.194L695.284 293.178L694.053 304.54Z" fill="#EBBC3B"/>
<path d="M692.719 185.363L694.073 192.428L680.591 263.553L686.144 280.151L698.4 262.662L700.483 192.421L703.218 187.628L697.484 181.1L692.719 185.363Z" fill="#D65353"/>
<path d="M716.451 186.576L708.214 193.246L697.484 181.1L688.698 188.971" stroke="#202A3B" stroke-width="0.3121" stroke-miterlimit="10"/>
<path d="M683.772 127.806C683.772 127.806 683.993 130.645 684.546 137.636C685.1 144.626 676.917 158.834 693.857 159.692L692.45 174.987L695.24 178.374C696.552 179.969 698.793 180.443 700.641 179.518L716.707 171.468L714.982 144.587C714.982 144.587 700.942 143.191 709.999 128.434C709.999 128.434 709.365 124.005 703.877 125.381C698.196 126.808 689.783 128.456 683.772 127.806Z" fill="#D68D8D"/>
<path d="M695.061 159.911C695.061 159.911 700.635 160.123 704.621 158.209" stroke="#422424" stroke-width="0.5494" stroke-miterlimit="10"/>
<path d="M718.285 145.824C716.283 149.299 712.415 150.823 709.645 149.228C706.875 147.633 706.254 143.523 708.257 140.049C710.259 136.574 714.127 135.05 716.897 136.645C719.665 138.24 720.287 142.35 718.285 145.824Z" fill="#D68D8D"/>
<path d="M716.678 140.445C716.678 140.445 711.939 137.173 709.033 145.332" stroke="#422424" stroke-width="0.5494" stroke-miterlimit="10"/>
<path d="M713.273 145.327L712.253 140.482" stroke="#422424" stroke-width="0.5494" stroke-miterlimit="10"/>
<path d="M691.102 136.375L691.909 141.089C691.909 141.089 685.866 145.118 693.842 144.127" stroke="#422424" stroke-width="0.5494" stroke-miterlimit="10"/>
<path d="M695.505 150.871C695.759 153.148 694.851 154.996 693.478 154.998C692.105 154.999 690.786 153.154 690.534 150.876C690.28 148.6 691.187 146.751 692.561 146.751C693.934 146.75 695.251 148.593 695.505 150.871Z" fill="#422424"/>
<path d="M690.517 150.567C690.524 150.67 690.52 150.771 690.534 150.876C690.787 153.153 692.104 154.998 693.478 154.996C694.851 154.994 695.758 153.148 695.505 150.87C695.464 150.493 695.383 150.135 695.287 149.788C694.889 149.732 694.482 149.696 694.067 149.696C692.714 149.699 691.495 150.022 690.517 150.567Z" fill="#943232"/>
<path d="M698.5 139.37L699.722 139.95C699.782 139.645 699.821 139.326 699.821 138.987C699.819 137.328 699.041 135.983 698.084 135.985C697.126 135.986 696.35 137.331 696.352 138.99C696.353 140.649 697.132 141.994 698.089 141.993C698.568 141.993 699.003 141.653 699.316 141.109L698.5 139.37Z" fill="#202A3B"/>
<path d="M687.901 139.382L689.123 139.961C689.182 139.657 689.222 139.338 689.222 138.999C689.22 137.339 688.443 135.995 687.484 135.996C686.526 135.998 685.75 137.343 685.752 139.002C685.754 140.661 686.533 142.004 687.489 142.004C687.968 142.004 688.403 141.665 688.716 141.12L687.901 139.382Z" fill="#202A3B"/>
<path d="M695.726 133.874C697.837 132.38 700.46 133.251 701.263 134.378" stroke="#496163" stroke-width="1.0403" stroke-miterlimit="10" stroke-linecap="round" stroke-linejoin="round"/>
<path d="M689.706 133.74C689.706 133.74 687.31 132.217 685.344 133.744" stroke="#496163" stroke-width="1.0403" stroke-miterlimit="10" stroke-linecap="round" stroke-linejoin="round"/>
<path d="M692.452 174.988L667.958 317.591C666.901 323.744 662.413 328.748 656.411 330.468L635.639 336.423C635.639 336.423 640.855 307.289 653.067 279.312L655.891 187.259L692.452 174.988Z" fill="#626875"/>
<path d="M655.891 187.258C648.608 190.033 638.287 214.074 638.287 214.074L613.956 215.554C613.956 215.554 606.987 241.487 604.532 263.481C602.077 285.476 634.87 295.93 654.06 246.96L655.891 187.258Z" fill="#626875"/>
<path d="M641.391 257.474L638.287 214.074" stroke="#202A3B" stroke-width="0.5621" stroke-miterlimit="10"/>
<path d="M686.274 177.061L674.759 192.907C672.554 195.93 671.984 199.848 673.237 203.374L677.449 215.228L668.103 227.749C665.404 231.364 664.576 236.042 665.865 240.364L675.473 272.54L692.45 174.987L686.274 177.061Z" fill="#202A3B"/>
<path d="M644.803 264.922C647.171 261.454 649.463 257.382 651.625 252.658L654.06 246.961L655.495 200.212L644.803 264.922Z" fill="#202A3B"/>
<path d="M615.66 215.452L622.637 190.66L635.509 204.537L635.99 214.214L615.66 215.452Z" fill="#D68D8D"/>
<path d="M631.611 214.481L635.99 214.214L635.511 204.537L622.637 190.66L619.769 200.852L631.611 214.481Z" fill="#DE6767"/>
<path d="M716.709 171.469L738.442 182.063C754.426 189.855 762.716 207.816 758.27 225.028L741.414 290.292L746.354 313.445L711.549 325.135C704.605 327.467 697.611 321.737 698.535 314.474L716.709 171.469Z" fill="#626875"/>
<path d="M711.549 325.136L746.354 313.446L741.414 290.294L708.228 325.643C709.314 325.658 710.431 325.512 711.549 325.136Z" fill="#202A3B"/>
<path d="M725.149 314.849L711.549 325.136L731.52 341.425L737.629 330.137L725.149 314.849Z" fill="#D68D8D"/>
<path d="M722.153 174.122L728.579 190.146C729.924 193.502 729.586 197.298 727.671 200.365L719.155 213.994L724.503 226.808C726.207 230.891 725.921 235.536 723.724 239.378L703.602 274.598L716.71 171.466L722.153 174.122Z" fill="#202A3B"/>
<path d="M751.536 188.446C760.944 193.032 768.904 200.101 774.563 208.901C784.559 224.444 800.299 248.956 805.529 257.313C813.41 269.903 817.579 286.503 797.702 300.287C777.827 314.07 741.129 334.425 741.129 334.425L723.843 313.251L765.988 274.54L739.717 230.434L732.144 178.993L751.536 188.446Z" fill="#626875"/>
<path d="M765.986 274.538L781.71 261.706" stroke="#202A3B" stroke-width="0.5621" stroke-miterlimit="10"/>
<path d="M737.526 227.086L751.684 250.527" stroke="#202A3B" stroke-width="0.5621" stroke-miterlimit="10"/>
<path d="M695.526 192.135L700.483 192.13" stroke="#202A3B" stroke-width="0.3121" stroke-miterlimit="10"/>
<path d="M655.361 207.066L640.624 209.419C638.495 209.76 635.861 208.41 634.743 206.407L618.262 176.896C617.142 174.893 617.962 172.993 620.09 172.653L634.827 170.299C636.957 169.958 639.59 171.308 640.708 173.311L657.189 202.821C658.309 204.825 657.49 206.726 655.361 207.066Z" fill="#202A3B"/>
<path d="M625.866 176.657C626.454 177.709 626.024 178.707 624.906 178.884C623.788 179.062 622.407 178.354 621.819 177.303C621.231 176.251 621.661 175.253 622.779 175.076C623.897 174.898 625.28 175.606 625.866 176.657Z" stroke="white" stroke-width="0.5621" stroke-miterlimit="10"/>
<path d="M620.112 193.078L629.147 206.511C630.29 208.209 632.653 208.547 634.227 207.235L643.009 199.912C644.045 199.048 644.354 197.588 643.76 196.38L640.559 189.875C639.964 188.667 638.621 188.021 637.306 188.311L626.825 190.624L636.383 184.617C637.504 183.913 637.868 182.45 637.206 181.302C636.513 180.097 634.96 179.706 633.776 180.435L621.166 188.214C619.496 189.243 619.017 191.452 620.112 193.078Z" fill="#D68D8D"/>
<path d="M625.303 197.726L641.193 191.168" stroke="#422424" stroke-width="0.5494" stroke-miterlimit="10"/>
<path d="M629.847 203.304L643.027 194.893" stroke="#422424" stroke-width="0.5494" stroke-miterlimit="10"/>
<path d="M571.834 597.442H555.326L521.668 481.215H538.174L571.834 597.442Z" stroke="#28364F" stroke-width="0.5621" stroke-miterlimit="10"/>
<path d="M374.525 597.442H391.032L424.689 481.215H408.183L374.525 597.442Z" stroke="#28364F" stroke-width="0.5621" stroke-miterlimit="10"/>
<path d="M538.174 481.215H521.668L528.276 504.032H544.115C544.338 504.032 544.553 504.006 544.774 503.999L538.174 481.215Z" fill="#28364F"/>
<path d="M408.183 481.215L401.585 503.999C401.806 504.006 402.021 504.032 402.244 504.032H418.083L424.691 481.215H408.183Z" fill="#28364F"/>
<path d="M410.395 530.579H535.964" stroke="#28364F" stroke-width="0.5621" stroke-miterlimit="10"/>
<path d="M554.492 467.836H542.756L560.168 395.674H571.905L554.492 467.836Z" stroke="#28364F" stroke-width="0.5621" stroke-miterlimit="10"/>
<path d="M554.804 417.9H561.076C562.994 417.9 564.913 417.554 566.77 416.952L571.904 395.674H560.167L554.804 417.9Z" fill="#28364F"/>
<path d="M544.116 492.576H402.244C391.086 492.576 382.039 483.534 382.039 472.379C382.039 461.226 391.084 452.183 402.244 452.183H544.116C555.273 452.183 564.32 461.224 564.32 472.379C564.318 483.534 555.273 492.576 544.116 492.576Z" fill="#D65353"/>
<path d="M561.076 413.085H504.684C495.596 413.085 490.008 405.721 492.199 396.639L509.107 326.572C511.299 317.487 520.443 310.125 529.531 310.125H585.923C595.011 310.125 600.599 317.489 598.408 326.572L581.5 396.639C579.308 405.721 570.164 413.085 561.076 413.085Z" fill="#D65353"/>
<path d="M543.222 395.674V426.751C543.222 450.04 525.69 469.599 502.531 472.147L396.262 483.837V401.254L543.222 395.674Z" fill="#496163"/>
<path d="M452.069 407.519C452.069 407.519 469.845 420.045 497.239 407.519L510.353 281.387H482.814L452.591 406.523L452.069 407.519Z" fill="#202A3B"/>
<path d="M473.415 422.957L411.233 434.9" stroke="#202A3B" stroke-width="0.5621" stroke-miterlimit="10"/>
<path d="M456.257 415.857L464.836 424.604" stroke="#202A3B" stroke-width="0.5621" stroke-miterlimit="10"/>
<path d="M427.953 456.456L491.607 450.331C503.751 449.163 513.229 439.319 513.934 427.146L515.304 403.491" stroke="#202A3B" stroke-width="0.5621" stroke-miterlimit="10"/>
<path d="M486.327 277.819C486.327 277.819 466.347 387.711 463.142 401.983C459.936 416.257 447.698 418.878 426.133 412.761C404.569 406.645 398.741 403.149 398.741 403.149L440.038 312.263C443.934 303.689 450.572 296.654 458.905 292.264L486.327 277.819Z" fill="#4A6CAB"/>
<path d="M478.725 283.392C473.195 289.259 465.377 301.414 476.838 315.761L467.379 323.864C465.627 325.365 464.682 327.6 464.823 329.902L467.804 378.217" stroke="#28364F" stroke-width="0.5621" stroke-miterlimit="10"/>
<path d="M485.143 289.711C488.877 292.072 495.046 293.92 503.46 289.663" stroke="#4A6CAB" stroke-width="0.5494" stroke-miterlimit="10"/>
<path d="M455.565 316.342L440.412 397.615" stroke="#202A3B" stroke-width="0.5494" stroke-miterlimit="10"/>
<path d="M461.102 395.575C456.857 394.556 456.258 380.501 456.258 380.501H473.414C473.414 380.501 467.477 397.104 461.102 395.575Z" fill="#202A3B"/>
<path d="M530.925 315.183C530.925 315.183 536.578 300.613 555.519 306.44" stroke="#202A3B" stroke-width="0.5494" stroke-miterlimit="10"/>
<path d="M467.002 367.027H437.132C437.132 367.027 409.374 371.906 405.076 386.616H442.959H469.26L467.002 367.027Z" fill="#A8652A"/>
<path d="M427.954 372.854L411.233 386.458" stroke="#422424" stroke-width="0.5494" stroke-miterlimit="10"/>
<path d="M434.052 373.751L418.435 386.458" stroke="#422424" stroke-width="0.5494" stroke-miterlimit="10"/>
<path d="M440.412 374.434L425.635 386.458" stroke="#422424" stroke-width="0.5494" stroke-miterlimit="10"/>
<path d="M443.845 377.499L432.834 386.458" stroke="#422424" stroke-width="0.5494" stroke-miterlimit="10"/>
<path d="M506.636 260.45L518.607 247.108C520.583 244.904 521.161 241.781 520.104 239.018L518.159 233.938C516.567 229.777 512.933 226.737 508.554 225.902L494.992 223.32C489.407 222.256 483.731 224.661 480.61 229.412L479.318 231.379H477.263C474.038 231.379 471.162 233.405 470.078 236.438L469.177 238.958C468.422 241.074 469.991 243.301 472.237 243.301H487.404L506.636 260.45Z" fill="#202A3B"/>
<path d="M486.091 235.107C486.091 235.107 477.13 232.923 478.551 253.349C478.551 253.349 468.607 263.508 485.544 269.297L485.269 283.626C485.269 283.626 493.037 293.184 506.635 282.842V254.332C506.635 254.332 504.65 252.084 503.358 247.949C502.617 245.58 500.435 243.954 497.954 243.954H495.479C494.239 243.954 493.176 243.073 492.957 241.854C492.062 236.884 489.495 225.511 486.091 235.107Z" fill="#A8652A"/>
<path d="M514.805 257.869C513.366 261.309 509.702 263.052 506.62 261.765C503.539 260.476 502.207 256.645 503.644 253.206C505.083 249.766 508.747 248.023 511.83 249.31C514.912 250.597 516.245 254.429 514.805 257.869Z" fill="#A8652A"/>
<path d="M512.317 252.911C512.317 252.911 509.257 250.181 505.104 257.826" stroke="#422424" stroke-width="0.5494" stroke-miterlimit="10"/>
<path d="M510.351 256.954L508.344 253.517" stroke="#422424" stroke-width="0.5494" stroke-miterlimit="10"/>
<path d="M486.965 269.297C486.965 269.297 493.741 270.718 500.188 267.441" stroke="#422424" stroke-width="0.5494" stroke-miterlimit="10"/>
<path d="M486.966 247.524L486.335 253.2C486.253 253.942 486.938 254.538 487.662 254.353L490.463 253.642" stroke="#422424" stroke-width="0.5494" stroke-miterlimit="10"/>
<path d="M485.144 257.165C485.144 257.165 490.021 258.342 496.362 255.132" stroke="#422424" stroke-width="0.5494" stroke-miterlimit="10"/>
<path d="M483.25 248.907L484.511 249.633C484.633 249.225 484.707 248.772 484.707 248.288C484.707 246.579 483.859 245.193 482.814 245.193C481.768 245.193 480.92 246.579 480.92 248.288C480.92 249.997 481.768 251.382 482.814 251.382C483.271 251.382 483.686 251.106 484.014 250.663L483.25 248.907Z" fill="#202A3B"/>
<path d="M493.475 248.907L494.736 249.633C494.858 249.225 494.932 248.772 494.932 248.288C494.932 246.579 494.084 245.193 493.038 245.193C491.993 245.193 491.145 246.579 491.145 248.288C491.145 249.997 491.993 251.382 493.038 251.382C493.496 251.382 493.911 251.106 494.239 250.663L493.475 248.907Z" fill="#202A3B"/>
<path d="M480.919 242.499C480.919 242.499 482.959 241.48 486.966 242.499" stroke="#202A3B" stroke-width="1.0403" stroke-miterlimit="10" stroke-linecap="round" stroke-linejoin="round"/>
<path d="M506.636 275.852L548.236 299.228L549.373 420.055C549.39 421.834 548.331 423.444 546.686 424.12C534.137 429.282 482.563 447.964 487.62 404.021C491.409 371.106 506.636 275.852 506.636 275.852Z" fill="#4A6CAB"/>
<path d="M487.783 402.628L549.377 420.522L549.056 386.458L488.486 396.935C488.226 398.973 487.991 400.877 487.783 402.628Z" fill="#202A3B"/>
<path d="M512.711 281.145C517.405 288.052 525.085 304.369 504.522 317.216L510.863 326.391C513.327 329.953 513.634 334.579 511.668 338.438L490.886 379.222" stroke="#202A3B" stroke-width="0.5494" stroke-miterlimit="10"/>
<path d="M548.234 299.228C558.433 304.69 563.388 313.474 564.261 328.017C564.821 337.325 560.963 369.575 558.112 391.58C556.599 403.274 545.573 411.29 533.979 409.132L461.101 395.575C466.714 396.619 464.809 367.029 464.809 367.029H521.423L532.205 308.187L548.234 299.228Z" fill="#4A6CAB"/>
<path d="M530.605 367.027H464.811" stroke="#202A3B" stroke-width="0.5494" stroke-miterlimit="10"/>
<path d="M530.006 320.198L521.425 367.027" stroke="#202A3B" stroke-width="0.5494" stroke-miterlimit="10"/>
<path d="M405.957 544.979H540.402" stroke="#28364F" stroke-width="0.5621" stroke-miterlimit="10"/>
<path d="M523.649 530.579L532.443 544.979H540.403L535.965 530.579H523.649Z" fill="#28364F"/>
<path d="M475.651 386.458H229.72V391.205H475.651V386.458Z" fill="#6E9296"/>
<path d="M455.845 391.205H249.524V597.442H455.845V391.205Z" fill="#6E9296"/>
<path d="M405.938 448.904H249.524V559.084H405.938C415.118 559.084 422.559 551.646 422.559 542.469V465.519C422.561 456.342 415.118 448.904 405.938 448.904Z" fill="#202A3B"/>
<path d="M455.845 397.615L249.524 413.085V391.205H455.845V397.615Z" fill="#202A3B"/>
<path d="M447.988 394.24V592.782" stroke="#202A3B" stroke-width="0.5621" stroke-miterlimit="10"/>
<path d="M466.148 381.553H341.059V386.033H466.148V381.553Z" fill="#202A3B"/>
<path d="M411.655 386.032H318.402L297.645 314.757H390.897L411.655 386.032Z" fill="#202A3B"/>
<path d="M386.632 317.372L405.323 381.553" stroke="#EBBC3B" stroke-width="0.5621" stroke-miterlimit="10"/>
<path d="M363.809 357.931H345.219C341.662 357.931 337.939 355.049 336.903 351.492L336.262 349.295C335.227 345.739 337.272 342.856 340.828 342.856H359.419C362.976 342.856 366.699 345.738 367.735 349.295L368.376 351.492C369.41 355.049 367.366 357.931 363.809 357.931Z" stroke="#EBBC3B" stroke-width="0.5621" stroke-miterlimit="10"/>
<path d="M258.677 364.017H290.15C290.15 364.017 293.429 383.793 274.413 383.793C255.399 383.792 258.677 364.017 258.677 364.017Z" fill="white"/>
<path d="M292.69 381.313H279.762V366.691H292.69C296.729 366.691 300.003 369.964 300.003 374.001C300.004 378.039 296.729 381.313 292.69 381.313Z" stroke="white" stroke-width="0.9899" stroke-miterlimit="10"/>
<path d="M288.82 386.032H260.01L269.89 383.206H278.94L288.82 386.032Z" fill="white"/>
<path d="M266.093 347.886C266.093 348.235 266.19 348.566 266.368 348.873C266.824 349.66 266.824 350.458 266.368 351.244C266.19 351.551 266.093 351.884 266.093 352.231C266.093 352.579 266.19 352.911 266.368 353.219C266.824 354.006 266.824 354.804 266.368 355.589C266.19 355.897 266.093 356.229 266.093 356.577C266.093 356.924 266.19 357.256 266.368 357.564C266.824 358.351 266.824 359.149 266.368 359.934C266.19 360.242 266.093 360.575 266.093 360.922" stroke="white" stroke-width="0.541" stroke-miterlimit="10"/>
<path d="M271.435 347.886C271.435 348.235 271.532 348.566 271.711 348.873C272.167 349.66 272.167 350.458 271.711 351.244C271.533 351.551 271.435 351.884 271.435 352.231C271.435 352.579 271.532 352.911 271.711 353.219C272.167 354.006 272.167 354.804 271.711 355.589C271.533 355.897 271.435 356.229 271.435 356.577C271.435 356.924 271.532 357.256 271.711 357.564C272.167 358.351 272.167 359.149 271.711 359.934C271.533 360.242 271.435 360.575 271.435 360.922" stroke="white" stroke-width="0.541" stroke-miterlimit="10"/>
<path d="M276.776 347.886C276.776 348.235 276.874 348.566 277.053 348.873C277.509 349.66 277.509 350.458 277.053 351.244C276.875 351.551 276.776 351.884 276.776 352.231C276.776 352.579 276.874 352.911 277.053 353.219C277.509 354.006 277.509 354.804 277.053 355.589C276.875 355.897 276.776 356.229 276.776 356.577C276.776 356.924 276.874 357.256 277.053 357.564C277.509 358.351 277.509 359.149 277.053 359.934C276.875 360.242 276.776 360.575 276.776 360.922" stroke="white" stroke-width="0.541" stroke-miterlimit="10"/>
<path d="M282.12 347.886C282.12 348.235 282.217 348.566 282.397 348.873C282.853 349.66 282.853 350.458 282.397 351.244C282.219 351.551 282.12 351.884 282.12 352.231C282.12 352.579 282.217 352.911 282.397 353.219C282.853 354.006 282.853 354.804 282.397 355.589C282.219 355.897 282.12 356.229 282.12 356.577C282.12 356.924 282.217 357.256 282.397 357.564C282.853 358.351 282.853 359.149 282.397 359.934C282.219 360.242 282.12 360.575 282.12 360.922" stroke="white" stroke-width="0.541" stroke-miterlimit="10"/>
<path d="M409.573 295.525H328.016C323.095 295.525 319.861 291.538 320.788 286.622L330.787 233.643C331.716 228.725 336.456 224.74 341.375 224.74H422.933C427.853 224.74 431.089 228.727 430.16 233.643L420.161 286.622C419.233 291.538 414.492 295.525 409.573 295.525Z" fill="#4A6CAB"/>
<path d="M423.037 249.093L418.869 271.172L456.925 260.132L423.037 249.093Z" fill="#4A6CAB"/>
<path d="M344.953 241.51H413.025" stroke="white" stroke-width="2.0806" stroke-miterlimit="10" stroke-linecap="round" stroke-linejoin="round"/>
<path d="M342.61 253.925H410.682" stroke="white" stroke-width="2.0806" stroke-miterlimit="10" stroke-linecap="round" stroke-linejoin="round"/>
<path d="M340.267 266.341H408.338" stroke="white" stroke-width="2.0806" stroke-miterlimit="10" stroke-linecap="round" stroke-linejoin="round"/>
<path d="M337.924 278.757H405.995" stroke="white" stroke-width="2.0806" stroke-miterlimit="10" stroke-linecap="round" stroke-linejoin="round"/>
<path d="M163.897 597.442L164.269 593.072L171.351 597.442H207.033L207.018 592.672C207.008 589.479 205.338 586.658 202.6 585.208L182.242 574.431C178.577 572.491 176.637 568.435 177.327 564.155L180.508 544.413H157.921L156.778 570.356C156.71 571.88 156.055 573.37 154.977 574.54C146.386 583.859 150.349 590.597 150.349 590.597L149.766 597.442H163.897Z" fill="#F56464"/>
<path d="M207.016 592.674C207.006 589.481 205.336 586.66 202.598 585.209L182.24 574.433C180.957 573.753 179.9 572.803 179.078 571.688C170.562 573.113 166.858 578.946 166.858 578.946L153.967 575.72C146.749 584.419 150.349 590.597 150.349 590.597L150.125 593.219H164.252L164.265 593.074L164.5 593.219H207.014L207.016 592.674Z" fill="#202A3B"/>
<path d="M149.77 597.442H163.896L164.268 593.072L171.351 597.442H207.032L207.018 592.672C207.016 592.111 206.945 591.566 206.843 591.033H150.313L149.77 597.442Z" fill="#8A6E56"/>
<path d="M121.305 597.442L121.677 593.072L128.76 597.442H164.441L164.427 592.672C164.417 589.479 160.954 588.142 158.217 586.694L139.651 574.431C135.985 572.491 134.046 568.435 134.736 564.155L137.917 544.413H115.333L114.19 570.356C114.123 571.88 113.467 573.37 112.389 574.54C103.798 583.859 107.761 590.597 107.761 590.597L107.179 597.442H121.305Z" fill="#F56464"/>
<path d="M164.425 592.674C164.415 589.481 162.745 586.66 160.007 585.209L139.649 574.433C138.366 573.753 137.309 572.803 136.487 571.688C127.971 573.113 124.267 578.946 124.267 578.946L111.376 575.72C104.158 584.419 107.758 590.597 107.758 590.597L107.536 593.219H121.662L121.674 593.074L121.909 593.219H164.423L164.425 592.674Z" fill="#28364F"/>
<path d="M203.93 316.924L186.008 548.187H152.35L149.438 316.924H203.93Z" fill="#8A6E56"/>
<path d="M150.406 393.926L186.592 540.641L186.007 548.187H152.349L150.406 393.926Z" fill="#202A3B"/>
<path d="M188.412 316.924L172.036 544.415" stroke="#202A3B" stroke-width="0.5494" stroke-miterlimit="10"/>
<path d="M152.254 540.641L152.349 548.188H186.007L186.592 540.641H152.254Z" fill="#A88A71"/>
<path d="M171.823 316.924L143.412 548.187H109.754L117.332 316.924H171.823Z" fill="#8A6E56"/>
<path d="M156.305 316.924L129.611 544.415" stroke="#202A3B" stroke-width="0.5494" stroke-miterlimit="10"/>
<path d="M110.001 540.641L109.754 548.188H143.412L144.339 540.641H110.001Z" fill="#A88A71"/>
<path d="M145.086 370.581L202.772 331.852L203.93 316.924H174.507L145.086 370.581Z" fill="#202A3B"/>
<path d="M167.53 351.866L158.579 424.731" stroke="#202A3B" stroke-width="0.5494" stroke-miterlimit="10"/>
<path d="M164.151 150.339C177.567 150.339 195.535 151.725 188.576 170.406C187.969 172.039 188.357 173.877 189.548 175.15C191.695 177.449 191.792 180.152 191.297 182.273C190.915 183.908 191.461 185.577 192.662 186.751C194.341 188.39 194.789 190.617 194.74 192.222C194.705 193.298 195.137 194.335 195.832 195.158C197.936 197.655 197.702 201.244 197.702 201.244H122.955C122.955 201.244 122.874 194.284 129.153 189.606C131.212 188.072 132.354 185.593 132.2 183.032C131.85 177.261 134.144 174.229 136.234 172.811C137.65 171.849 138.608 170.346 139.051 168.692C141.315 160.21 145.649 150.339 164.151 150.339Z" fill="#EBBC3B"/>
<path d="M133.7 192.396L130.612 201.243" stroke="#D4780E" stroke-width="0.5546" stroke-miterlimit="10"/>
<path d="M139.892 192.396L138.349 201.243" stroke="#D4780E" stroke-width="0.5546" stroke-miterlimit="10"/>
<path d="M146.084 192.396V201.243" stroke="#D4780E" stroke-width="0.5546" stroke-miterlimit="10"/>
<path d="M175.809 192.396V201.243" stroke="#D4780E" stroke-width="0.5546" stroke-miterlimit="10"/>
<path d="M182.11 192.396L183.301 201.243" stroke="#D4780E" stroke-width="0.5546" stroke-miterlimit="10"/>
<path d="M188.412 192.396L190.793 201.243" stroke="#D4780E" stroke-width="0.5546" stroke-miterlimit="10"/>
<path d="M265.126 290.417C268.267 288.554 262.454 267.842 262.454 267.842L247.099 275.424C247.099 275.424 258.296 294.471 265.126 290.417Z" fill="#202A3B"/>
<path d="M240.064 269.297L247.058 261.141L262.648 255.097C262.648 255.097 264.689 252.258 270.516 249.417C276.344 246.576 281.882 243.737 283.047 244.173C284.213 244.611 276.782 251.237 276.782 251.237L284.505 250.363L295.104 246.466C296.163 246.076 297.296 246.811 297.377 247.936C297.548 250.335 297.699 254.069 297.182 256.042C296.38 259.1 288.951 268.277 265.127 270.242L247.642 278.836L240.064 269.297Z" fill="#F56464"/>
<path d="M280.062 255.204C280.062 255.204 287.951 254.172 297.449 248.499" stroke="#422424" stroke-width="0.5494" stroke-miterlimit="10"/>
<path d="M280.062 258.272C280.062 258.272 287.951 257.24 297.449 251.567" stroke="#422424" stroke-width="0.5494" stroke-miterlimit="10"/>
<path d="M280.062 261.627C280.062 261.627 287.951 260.595 297.449 254.921" stroke="#422424" stroke-width="0.5494" stroke-miterlimit="10"/>
<path d="M280.062 253.241L280.317 263.782" stroke="#422424" stroke-width="0.5494" stroke-miterlimit="10"/>
<path d="M275.982 259.612C275.982 259.612 268.697 257.354 263.742 264.127" stroke="#422424" stroke-width="0.5494" stroke-miterlimit="10"/>
<path d="M173.987 204.629L195.72 219.037C200.075 221.924 203.772 225.7 206.566 230.114L230.448 267.841L247.058 261.142C247.058 261.142 259.006 291.436 265.125 290.417C265.125 290.417 235.546 311.535 221.121 308.915C206.696 306.293 194.893 278.765 194.893 278.765L206.55 320.858H111.695L137.485 275.271L124.809 233.143C122.025 223.888 126.456 213.99 135.218 209.902L148.851 203.538L173.987 204.629Z" fill="#8A6E56"/>
<path d="M148.852 203.538L144.663 205.494L141.906 213.324C140.624 216.968 141.717 221.024 144.656 223.53L152.876 230.541L152.852 230.636C151.477 236.02 153.036 241.732 156.955 245.671L173.397 262.198L178.974 244.912C180.471 240.275 179.74 235.207 176.997 231.181L176.017 229.744L180.465 224.273C182.806 221.392 183.219 217.399 181.517 214.1L178.008 207.299L173.985 204.633L148.852 203.538Z" fill="#A88A71"/>
<path d="M195.644 227.571L200.033 239.36C202.496 245.978 201.808 253.358 198.164 259.407L192.237 269.243L194.613 277.745" stroke="#202A3B" stroke-width="0.5494" stroke-miterlimit="10"/>
<path d="M170.489 255.097L177.119 273.34L169.834 319.838" stroke="#202A3B" stroke-width="0.5494" stroke-miterlimit="10"/>
<path d="M193.386 322.925L152.47 282.025L101.573 332.9L142.49 373.801L193.386 322.925Z" fill="#D4780E"/>
<path d="M182.463 318.389L152.247 288.185L136.478 303.948L166.694 334.152L182.463 318.389Z" fill="white"/>
<path d="M175.293 304.859L165.228 310.143L141.376 293.085L101.547 332.894L142.462 373.795L193.362 322.923L175.293 304.859Z" fill="#EBBC3B"/>
<path d="M172.465 274.365C172.465 275.725 171.362 276.828 170.003 276.828C168.643 276.828 167.54 275.725 167.54 274.365C167.54 273.006 168.643 271.903 170.003 271.903C171.362 271.903 172.465 273.006 172.465 274.365Z" stroke="white" stroke-width="0.5497" stroke-miterlimit="10"/>
<path d="M230.448 267.841L210.778 276.828" stroke="#202A3B" stroke-width="0.5494" stroke-miterlimit="10"/>
<path d="M148.852 313.428L160.145 322.313L168.477 323.752C171.98 324.356 174.97 326.621 176.501 329.827L181.916 341.165C182.261 341.891 182.049 342.76 181.405 343.244L172.798 349.711C171.532 350.663 169.732 350.386 168.808 349.1L163.325 341.455C163.325 341.455 151.039 337.608 150.892 332.219L136.687 325.306L148.852 313.428Z" fill="#F56464"/>
<path d="M170.198 329.306L173.477 332.655L180.123 344.207" stroke="#422424" stroke-width="0.5494" stroke-miterlimit="10"/>
<path d="M167.194 332.165L170.473 335.514L176.877 346.645" stroke="#422424" stroke-width="0.5494" stroke-miterlimit="10"/>
<path d="M164.19 335.026L167.469 338.375L173.631 349.084" stroke="#422424" stroke-width="0.5494" stroke-miterlimit="10"/>
<path d="M150.35 314.609L144.123 328.924L136.685 325.304L147.454 312.082L150.35 314.609Z" fill="#202A3B"/>
<path d="M170.928 195.673V202.228L173.987 204.631L170.49 255.099L148.853 203.54L150.349 202.972C151.36 202.588 152.039 201.632 152.067 200.551L152.678 176.012C165.573 175.138 168.96 160.5 168.96 160.5C168.96 160.5 184.806 163.231 180.653 180.38C182.657 187.299 178.94 195.746 170.928 195.673Z" fill="#F56464"/>
<path d="M158.132 176.634C159.568 180.262 158.307 184.163 155.313 185.347C152.32 186.53 148.73 184.55 147.294 180.922C145.858 177.294 147.12 173.393 150.113 172.21C153.105 171.025 156.697 173.006 158.132 176.634Z" fill="#F56464"/>
<path d="M149.436 176.083C151.767 174.845 154.463 174.626 156.212 181.253" stroke="#422424" stroke-width="0.5494" stroke-miterlimit="10"/>
<path d="M151.037 179.87L153.891 176.358" stroke="#422424" stroke-width="0.5494" stroke-miterlimit="10"/>
<path d="M169.471 195.673C169.471 195.673 159.782 196.037 157.086 187.954" stroke="#422424" stroke-width="0.5494" stroke-miterlimit="10"/>
<path d="M168.82 173.355C167.748 173.248 166.615 174.549 166.289 176.257C166.22 176.618 166.202 176.962 166.21 177.291L167.499 176.977L166.332 178.163C166.544 178.942 167.005 179.483 167.636 179.546C168.708 179.653 169.841 178.353 170.167 176.644C170.496 174.936 169.892 173.462 168.82 173.355Z" fill="#202A3B"/>
<path d="M177.718 174.241C176.646 174.134 175.513 175.434 175.187 177.143C175.118 177.503 175.1 177.847 175.108 178.176L176.398 177.862L175.23 179.049C175.443 179.827 175.904 180.369 176.534 180.432C177.606 180.538 178.739 179.238 179.065 177.53C179.393 175.819 178.789 174.348 177.718 174.241Z" fill="#202A3B"/>
<path d="M172.602 176.452L172.93 179.87L173.987 180.879C174.631 181.493 174.447 182.563 173.635 182.929L172.092 183.622" stroke="#422424" stroke-width="0.5494" stroke-miterlimit="10"/>
<path d="M173.768 185.587C173.768 185.587 168.485 186.897 165.39 182.529" stroke="#422424" stroke-width="0.5494" stroke-miterlimit="10"/>
<path d="M165.572 171.168C165.572 171.168 168.742 169.566 171.11 171.168" stroke="#EBBC3B" stroke-width="1.0403" stroke-miterlimit="10" stroke-linecap="round" stroke-linejoin="round"/>
<path d="M174.06 173.35C174.06 173.35 177.229 171.749 179.597 173.35" stroke="#EBBC3B" stroke-width="1.0403" stroke-miterlimit="10" stroke-linecap="round" stroke-linejoin="round"/>
<path d="M170.49 255.097L173.398 213.126H152.877L170.49 255.097Z" fill="#202A3B"/>
<path d="M154.293 185.572C154.293 186.65 153.418 187.524 152.34 187.524C151.261 187.524 150.387 186.65 150.387 185.572C150.387 184.494 151.261 183.62 152.34 183.62C153.417 183.62 154.293 184.494 154.293 185.572Z" fill="white"/>
<path d="M137.487 245.557L119.128 284.445L148.852 313.43L134.549 333.472C134.549 333.472 108.782 323.189 92.4638 308.915C76.3989 294.863 92.9001 258.666 105.431 240.023C117.962 221.381 128.886 212.933 134.365 210.338L137.487 245.557Z" fill="#8A6E56"/>
<path d="M148.853 313.428L107.253 273.34" stroke="#202A3B" stroke-width="0.5494" stroke-miterlimit="10"/>
<path d="M139.344 242.099L132.026 257.122" stroke="#202A3B" stroke-width="0.5494" stroke-miterlimit="10"/>
<path d="M154.293 206.277L161.146 209.006" stroke="#422424" stroke-width="0.5494" stroke-miterlimit="10"/>
<path d="M107.179 597.442H121.305L121.678 593.072L128.76 597.442H164.442L164.427 592.672C164.425 592.111 164.354 591.566 164.254 591.033H107.725L107.179 597.442Z" fill="#A88A71"/>
<path d="M117.372 187.756L99.4386 181.938C97.7195 181.38 96.412 179.969 95.9987 178.211C90.7672 155.98 70.1345 139.688 45.9631 141.23C22.0337 142.758 2.59484 162.186 1.06179 186.104C-0.734721 214.13 21.4739 237.421 49.1247 237.421C71.9129 237.421 90.9912 221.598 95.9954 200.348C96.4137 198.572 97.7771 197.171 99.5259 196.643L117.336 191.262C119.06 190.742 119.085 188.311 117.372 187.756Z" stroke="#BEDCE0" stroke-width="1.286" stroke-miterlimit="10"/>
<path d="M207.59 199.616L315.395 241.846" stroke="#1A2230" stroke-width="1.3022" stroke-miterlimit="10"/>
<path d="M207.59 203.823C209.914 203.823 211.799 201.939 211.799 199.616C211.799 197.292 209.914 195.409 207.59 195.409C205.265 195.409 203.381 197.292 203.381 199.616C203.381 201.939 205.265 203.823 207.59 203.823Z" fill="#4A6CAB"/>
<path d="M319.466 241.846C319.466 244.168 317.582 246.053 315.257 246.053C312.933 246.053 311.048 244.17 311.048 241.846C311.048 239.523 312.932 237.64 315.257 237.64C317.582 237.64 319.466 239.523 319.466 241.846Z" fill="#4A6CAB"/>
<path d="M201.797 171.369L235.048 143.354" stroke="#1A2230" stroke-width="1.3022" stroke-miterlimit="10"/>
<path d="M201.797 175.576C204.121 175.576 206.006 173.692 206.006 171.369C206.006 169.045 204.121 167.161 201.797 167.161C199.472 167.161 197.588 169.045 197.588 171.369C197.588 173.692 199.472 175.576 201.797 175.576Z" fill="#4A6CAB"/>
<path d="M239.12 143.354C239.12 145.676 237.236 147.561 234.913 147.561C232.59 147.561 230.704 145.678 230.704 143.354C230.704 141.031 232.588 139.147 234.913 139.147C237.236 139.148 239.12 141.031 239.12 143.354Z" fill="#4A6CAB"/>
<path d="M525.869 253.869L601.408 216.028" stroke="#1A2230" stroke-width="1.3022" stroke-miterlimit="10"/>
<path d="M525.869 258.077C528.194 258.077 530.078 256.193 530.078 253.87C530.078 251.546 528.194 249.662 525.869 249.662C523.545 249.662 521.66 251.546 521.66 253.87C521.66 256.193 523.545 258.077 525.869 258.077Z" fill="#4A6CAB"/>
<path d="M601.271 220.235C603.596 220.235 605.48 218.352 605.48 216.028C605.48 213.704 603.596 211.821 601.271 211.821C598.947 211.821 597.062 213.704 597.062 216.028C597.062 218.352 598.947 220.235 601.271 220.235Z" fill="#4A6CAB"/>
<path d="M633.205 124.927L667.227 147.839" stroke="#1A2230" stroke-width="1.3022" stroke-miterlimit="10"/>
<path d="M637.38 125.463C637.082 127.768 634.972 129.394 632.667 129.098C630.361 128.8 628.735 126.691 629.031 124.387C629.329 122.082 631.438 120.456 633.744 120.752C636.049 121.05 637.676 123.161 637.38 125.463Z" fill="#4A6CAB"/>
<path d="M671.265 148.361C670.968 150.665 668.857 152.292 666.552 151.995C664.247 151.699 662.62 149.589 662.916 147.286C663.213 144.982 665.324 143.355 667.627 143.652C669.934 143.948 671.563 146.056 671.265 148.361Z" fill="#4A6CAB"/>
<path d="M214.124 107.639H161.313C158.977 107.639 157.083 105.746 157.083 103.41V73.0515C157.083 70.7158 158.977 68.8229 161.313 68.8229H214.124C216.46 68.8229 218.354 70.7158 218.354 73.0515V103.41C218.354 105.746 216.46 107.639 214.124 107.639Z" fill="#EBBC3B"/>
<path d="M213.702 73.5963L192.527 94.1005C189.846 96.6963 185.59 96.6963 182.909 94.1005L161.734 73.5963" stroke="white" stroke-width="0.9619" stroke-miterlimit="10"/>
<path d="M162.82 103.121L177.257 88.6918" stroke="white" stroke-width="0.9619" stroke-miterlimit="10"/>
<path d="M212.617 103.121L198.183 88.6918" stroke="white" stroke-width="0.9619" stroke-miterlimit="10"/>
<path d="M557.976 157.361H442.398C405.753 157.361 376.046 127.666 376.046 91.0357C376.046 54.4039 405.753 24.7101 442.398 24.7101H557.976C594.623 24.7101 624.329 54.4056 624.329 91.0357C624.33 127.666 594.623 157.361 557.976 157.361Z" fill="#6E9296"/>
<mask id="mask1_608_2696" style="mask-type:luminance" maskUnits="userSpaceOnUse" x="462" y="62" width="147" height="96">
<path d="M462.269 157.361H557.978C578.09 157.361 596.098 148.404 608.267 134.278V62.9253H462.269V157.361Z" fill="white"/>
</mask>
<g mask="url(#mask1_608_2696)">
<path d="M505.543 77.2719C499.424 80.1112 493.303 89.0687 488.276 100.648C483.248 112.228 462.267 162.039 462.267 162.039H489.806L514.94 108.077L505.543 77.2719Z" fill="#D68D8D"/>
<path d="M498.414 143.556L513.976 110.144L502.81 107.456C502.81 107.456 495.241 126.64 498.414 143.556Z" fill="#28364F"/>
<path d="M563.041 66.1383C563.041 66.1383 583.326 69.9406 594.714 84.2624C608.265 101.303 608.265 162.039 608.265 162.039H501.171L506.198 143.196C506.198 143.196 495.603 123.156 504.14 104.028C506.092 99.6492 506.796 94.8149 506.455 90.0333L505.542 77.2735C505.542 77.2735 518.874 70.3916 534.772 66.4066L563.041 66.1383Z" fill="#496163"/>
<path d="M573.285 104.86L564.317 162.039H594.593L573.285 104.86Z" fill="#28364F"/>
<path d="M537.234 117.37L529.147 160.291" stroke="#28364F" stroke-width="0.5621" stroke-miterlimit="10"/>
<path d="M594.715 84.2624C593.735 83.0312 592.686 81.8823 591.594 80.8025C585.291 75.6505 572.86 87.5511 573.296 103.051C573.734 118.563 578.76 162.039 578.76 162.039H608.265C608.265 162.039 608.265 101.303 594.715 84.2624Z" fill="#D68D8D"/>
<path d="M533.082 139.951L571.375 68.5645C566.507 66.7934 563.041 66.1399 563.041 66.1399L534.773 66.4065C531.822 67.1456 528.962 67.9851 526.258 68.8624L533.082 139.951Z" fill="white"/>
</g>
<path d="M489.643 63.3433H412.456C410.676 63.3433 409.231 61.8998 409.231 60.1205C409.231 58.3411 410.676 56.8976 412.456 56.8976H489.643C491.423 56.8976 492.867 58.3411 492.867 60.1205C492.867 61.9014 491.423 63.3433 489.643 63.3433Z" stroke="white" stroke-width="1.0272" stroke-miterlimit="10"/>
<path d="M464.753 81.8049H412.454C410.674 81.8049 409.229 80.3613 409.229 78.582C409.229 76.8027 410.674 75.3591 412.454 75.3591H464.753C466.533 75.3591 467.978 76.801 467.978 78.582C467.978 80.3613 466.535 81.8049 464.753 81.8049Z" stroke="white" stroke-width="1.0272" stroke-miterlimit="10"/>
<path d="M463.141 100.266H412.454C410.674 100.266 409.229 98.8245 409.229 97.0435C409.229 95.2642 410.674 93.8207 412.454 93.8207H463.141C464.921 93.8207 466.366 95.2626 466.366 97.0435C466.366 98.8229 464.923 100.266 463.141 100.266Z" stroke="white" stroke-width="1.0272" stroke-miterlimit="10"/>
<path d="M443.908 118.726H412.454C410.674 118.726 409.229 117.283 409.229 115.503C409.229 113.724 410.674 112.281 412.454 112.281H443.908C445.688 112.281 447.132 113.724 447.132 115.503C447.132 117.284 445.69 118.726 443.908 118.726Z" stroke="white" stroke-width="1.0272" stroke-miterlimit="10"/>
<path d="M585.646 10.7471C585.646 15.9353 581.292 20.1408 575.921 20.1408C570.549 20.1408 566.195 15.9353 566.195 10.7471C566.195 5.55892 570.551 1.35339 575.921 1.35339C581.29 1.35339 585.646 5.55892 585.646 10.7471Z" fill="#612C2C"/>
<path d="M567.252 6.50208C566.581 7.77773 566.195 9.21798 566.195 10.7471C566.195 15.611 570.022 19.6108 574.926 20.0931C574.964 19.7228 575.018 19.354 575.043 18.982C575.506 11.9734 571.993 8.42296 567.252 6.50208Z" fill="#202A3B"/>
<path d="M561.97 43.5206C561.97 43.5206 571.221 31.1739 572.095 17.9566C572.97 4.73918 559.747 3.75651 550.677 2.99112C541.607 2.22738 531.553 -1.92382 528.602 3.86516C526.152 8.67313 529.226 12.6795 533.993 13.3955C538.76 14.1099 561.97 43.5206 561.97 43.5206Z" fill="#612C2C"/>
<path d="M533.993 13.3955C533.993 13.3955 531.974 22.9538 532.241 33.6166C532.508 44.2794 536.508 48.0125 541.309 49.0775C541.309 49.0775 543.246 63.0059 534.775 66.4049L538.242 114.656L563.044 66.1383L561.31 29.6168C561.31 29.6168 554.776 23.3521 556.51 11.3561C556.51 11.3561 543.475 15.927 533.993 13.3955Z" fill="#D68D8D"/>
<path d="M542.407 49.2339C542.407 49.2339 551.66 49.889 556.468 42.9708" stroke="#422424" stroke-width="0.5494" stroke-miterlimit="10"/>
<path d="M544.229 77.2718L557.998 68.8607" stroke="#422424" stroke-width="0.5494" stroke-miterlimit="10"/>
<path d="M568.42 35.3235C565.4 37.9653 561.295 38.2155 559.248 35.8798C557.203 33.5442 557.992 29.5082 561.012 26.8663C564.032 24.2245 568.137 23.9743 570.184 26.31C572.229 28.6457 571.44 32.6817 568.42 35.3235Z" fill="#D68D8D"/>
<path d="M560.038 33.1409C560.038 33.1409 563.9 25.7125 569.436 28.1897" stroke="#422424" stroke-width="0.5494" stroke-miterlimit="10"/>
<path d="M565.575 33.141L564.009 28.6803" stroke="#422424" stroke-width="0.5494" stroke-miterlimit="10"/>
<path d="M538.719 25.4245L540.336 26.2458C540.392 25.9808 540.438 25.7076 540.463 25.4245C540.649 23.3357 539.847 21.642 538.672 21.642C537.496 21.642 536.393 23.3357 536.207 25.4245C536.02 27.5133 536.822 29.207 537.998 29.207C538.678 29.207 539.327 28.6309 539.795 27.7503L538.719 25.4245Z" fill="#202A3B"/>
<path d="M549.161 25.4245L550.778 26.2458C550.835 25.9808 550.88 25.7076 550.905 25.4245C551.091 23.3357 550.289 21.642 549.113 21.642C547.937 21.642 546.834 23.3357 546.648 25.4245C546.462 27.5133 547.264 29.207 548.44 29.207C549.12 29.207 549.768 28.6309 550.236 27.7503L549.161 25.4245Z" fill="#202A3B"/>
<path d="M546.62 19.7047C546.62 19.7047 549.475 18.0241 552.481 20.0931" stroke="#612C2C" stroke-width="1.0403" stroke-miterlimit="10" stroke-linecap="round" stroke-linejoin="round"/>
<path d="M535.913 19.7047C535.913 19.7047 538.768 18.0241 541.774 20.0931" stroke="#612C2C" stroke-width="1.0403" stroke-miterlimit="10" stroke-linecap="round" stroke-linejoin="round"/>
<path d="M542.626 23.8558L542.407 28.0071L541.327 30.3872C540.935 31.2513 541.567 32.2307 542.516 32.2307H544.301" stroke="#422424" stroke-width="0.5494" stroke-miterlimit="10"/>
<path d="M540.148 34.67H549.437C549.437 34.67 548.199 43.5617 544.794 43.5222C541.388 43.4811 540.148 34.67 540.148 34.67Z" fill="#422424"/>
<path d="M548.299 39.3727C547.422 39.1965 546.485 39.0945 545.505 39.0945C544.026 39.0945 542.635 39.3134 541.418 39.7002C542.157 41.6836 543.252 43.5025 544.795 43.5206C546.429 43.5403 547.56 41.4993 548.299 39.3727Z" fill="#943232"/>
<path d="M564.008 34.67L560.038 51.3835H568.598L564.008 34.67Z" fill="white"/>
<path d="M646.583 90.7493C668.333 90.7493 685.965 73.1247 685.965 51.3836C685.965 29.6425 668.333 12.0178 646.583 12.0178C624.833 12.0178 607.201 29.6425 607.201 51.3836C607.201 73.1247 624.833 90.7493 646.583 90.7493Z" stroke="#BEDCE0" stroke-width="1.286" stroke-miterlimit="10"/>
<path d="M665.574 63.7945H646.538C644.936 63.7945 643.639 62.4958 643.639 60.8958V41.8681C643.639 40.2665 644.938 38.9695 646.538 38.9695H665.574C667.176 38.9695 668.474 40.2665 668.474 41.8681V60.8958C668.474 62.4974 667.176 63.7945 665.574 63.7945Z" fill="#4A6CAB"/>
<path d="M624.692 41.4368V61.3288C624.692 62.8925 626.464 63.7978 627.732 62.8809L640.046 53.981C641.816 52.7004 641.816 50.0652 640.046 48.7846L627.732 39.8847C626.466 38.9695 624.692 39.8731 624.692 41.4368Z" fill="#4A6CAB"/>
<path d="M1.19824 597.442L867.04 596.59" stroke="#1A2230" stroke-width="1.3022" stroke-miterlimit="10"/>
<path d="M398.557 549.509H230.371C221.191 549.509 213.75 542.071 213.75 532.894V455.944C213.75 446.767 221.191 439.329 230.371 439.329H398.559C407.739 439.329 415.18 446.767 415.18 455.944V532.894C415.18 542.071 407.737 549.509 398.557 549.509Z" fill="white"/>
<path d="M237.936 528.523V489.18L249.673 493.527L271.269 467.468L292.867 477.553L314.463 473.51L336.06 498.46L357.658 461.489L379.254 482.667L388.69 474.531V528.523H237.936Z" fill="#EBBC3B"/>
<path d="M227.343 528.523H401.585" stroke="#4A6CAB" stroke-width="0.707" stroke-miterlimit="10"/>
<path d="M227.343 485.254L249.673 493.527L271.269 467.468L292.867 477.553L314.463 473.51L336.061 498.46L357.658 461.489L379.254 482.667L401.585 463.41" stroke="#4A6CAB" stroke-width="0.707" stroke-miterlimit="10"/>
<path d="M249.674 493.527V528.523" stroke="#4A6CAB" stroke-width="0.707" stroke-miterlimit="10"/>
<path d="M249.674 496.549C251.343 496.549 252.697 495.196 252.697 493.527C252.697 491.858 251.343 490.505 249.674 490.505C248.004 490.505 246.65 491.858 246.65 493.527C246.65 495.196 248.004 496.549 249.674 496.549Z" fill="#202A3B"/>
<path d="M271.27 467.468V528.523" stroke="#4A6CAB" stroke-width="0.707" stroke-miterlimit="10"/>
<path d="M271.269 470.49C272.939 470.49 274.293 469.137 274.293 467.468C274.293 465.799 272.939 464.446 271.269 464.446C269.6 464.446 268.246 465.799 268.246 467.468C268.246 469.137 269.6 470.49 271.269 470.49Z" fill="#202A3B"/>
<path d="M292.867 477.552V528.523" stroke="#4A6CAB" stroke-width="0.707" stroke-miterlimit="10"/>
<path d="M292.867 480.575C294.537 480.575 295.89 479.222 295.89 477.553C295.89 475.884 294.537 474.531 292.867 474.531C291.197 474.531 289.844 475.884 289.844 477.553C289.844 479.222 291.197 480.575 292.867 480.575Z" fill="#202A3B"/>
<path d="M314.464 473.51V528.523" stroke="#4A6CAB" stroke-width="0.707" stroke-miterlimit="10"/>
<path d="M314.464 476.532C316.133 476.532 317.487 475.179 317.487 473.51C317.487 471.841 316.133 470.488 314.464 470.488C312.794 470.488 311.44 471.841 311.44 473.51C311.44 475.179 312.794 476.532 314.464 476.532Z" fill="#202A3B"/>
<path d="M336.062 498.46V528.523" stroke="#4A6CAB" stroke-width="0.707" stroke-miterlimit="10"/>
<path d="M336.061 501.482C337.731 501.482 339.085 500.129 339.085 498.46C339.085 496.791 337.731 495.438 336.061 495.438C334.392 495.438 333.038 496.791 333.038 498.46C333.038 500.129 334.392 501.482 336.061 501.482Z" fill="#202A3B"/>
<path d="M357.659 461.489V528.523" stroke="#4A6CAB" stroke-width="0.707" stroke-miterlimit="10"/>
<path d="M357.659 464.511C359.329 464.511 360.682 463.158 360.682 461.489C360.682 459.82 359.329 458.467 357.659 458.467C355.989 458.467 354.636 459.82 354.636 461.489C354.636 463.158 355.989 464.511 357.659 464.511Z" fill="#202A3B"/>
<path d="M379.255 482.667V528.523" stroke="#4A6CAB" stroke-width="0.707" stroke-miterlimit="10"/>
<path d="M379.255 485.689C380.924 485.689 382.278 484.336 382.278 482.667C382.278 480.998 380.924 479.645 379.255 479.645C377.585 479.645 376.231 480.998 376.231 482.667C376.231 484.336 377.585 485.689 379.255 485.689Z" fill="#202A3B"/>
<path d="M21.9171 195.27C25.2292 195.27 27.9142 192.586 27.9142 189.275C27.9142 185.965 25.2292 183.281 21.9171 183.281C18.6049 183.281 15.9199 185.965 15.9199 189.275C15.9199 192.586 18.6049 195.27 21.9171 195.27Z" stroke="#BEDCE0" stroke-width="1.286" stroke-miterlimit="10"/>
<path d="M39.8966 195.27C43.2087 195.27 45.8937 192.586 45.8937 189.275C45.8937 185.965 43.2087 183.281 39.8966 183.281C36.5844 183.281 33.8994 185.965 33.8994 189.275C33.8994 192.586 36.5844 195.27 39.8966 195.27Z" stroke="#BEDCE0" stroke-width="1.286" stroke-miterlimit="10"/>
<path d="M57.8751 195.27C61.1872 195.27 63.8722 192.586 63.8722 189.275C63.8722 185.965 61.1872 183.281 57.8751 183.281C54.5629 183.281 51.8779 185.965 51.8779 189.275C51.8779 192.586 54.5629 195.27 57.8751 195.27Z" stroke="#BEDCE0" stroke-width="1.286" stroke-miterlimit="10"/>
<path d="M75.8556 195.27C79.1677 195.27 81.8527 192.586 81.8527 189.275C81.8527 185.965 79.1677 183.281 75.8556 183.281C72.5434 183.281 69.8584 185.965 69.8584 189.275C69.8584 192.586 72.5434 195.27 75.8556 195.27Z" stroke="#BEDCE0" stroke-width="1.286" stroke-miterlimit="10"/>
</svg>
